# 3ds Max Wavefront OBJ Exporter v0.97b - (c)2007 guruware
# File Created: 28.08.2013 14:32:00

#
# object Missile_Launcher
#

v  0.1146 0.2160 0.3565
v  -0.3184 0.2160 0.3466
v  -0.3183 0.0833 0.3407
v  0.1146 0.0947 0.3478
v  -0.4030 -0.0586 0.1966
v  0.1080 0.0062 0.1714
v  0.1080 0.2191 0.1181
v  -0.3250 0.2191 0.1081
v  0.1080 0.0979 0.1712
v  -0.3097 0.1943 0.1558
v  -0.3151 0.1126 0.2190
v  -0.3048 0.1075 0.3175
v  -0.3068 0.1922 0.3213
v  -0.3303 0.0901 0.2077
v  -0.2900 0.2032 0.3328
v  -0.2890 0.0945 0.3279
v  -0.2948 0.2058 0.1308
v  -0.3001 0.1005 0.2122
# 18 vertices

vn -0.0160 -0.0666 0.9977
vn -0.0230 -0.0440 0.9988
vn -0.0215 -0.0489 0.9986
vn -0.0144 -0.0719 0.9973
vn 0.0480 -0.7788 0.6254
vn 0.1342 -0.8876 0.4407
vn 0.1051 -0.8552 0.5075
vn 0.0075 -0.7148 0.6993
vn -0.0003 0.9999 0.0131
vn 0.9993 -0.0001 -0.0375
vn -0.9964 0.0577 0.0614
vn -0.9826 0.1494 0.1102
vn -0.9987 0.0251 0.0440
vn -0.9995 -0.0245 0.0174
vn -0.8967 0.4306 0.1028
vn 0.9995 -0.0058 -0.0320
vn -0.4171 0.0382 -0.9081
vn -0.4055 -0.9141 -0.0014
vn -0.3077 0.5902 0.7463
vn -0.3306 0.9404 0.0790
vn -0.6596 -0.4359 -0.6123
vn -0.6333 -0.7736 0.0233
vn -0.5602 -0.0458 0.8271
vn -0.5731 0.8192 0.0225
# 24 vertex normals

vt 0.0000 0.5166 0.0000
vt 0.5000 0.5388 0.0000
vt 0.5000 1.0000 0.0000
vt 0.0002 0.9386 0.0000
vt 0.0000 0.0000 0.0000
vt 0.7500 0.5050 0.0000
vt 0.7500 0.0000 0.0000
vt 1.0000 0.5460 0.0000
vt 1.0000 1.0000 0.0000
# 9 texture coords

g Missile_Launcher
s 16
f 1/1/1 2/2/2 3/3/3 4/4/4 
s 1024
f 5/5/5 6/2/6 4/2/7 3/5/8 
s off
f 7/1/9 8/2/9 2/2/9 1/1/9 
f 6/2/10 9/1/10 4/1/10 
s 512
f 10/2/11 11/3/12 12/3/13 13/2/14 
f 14/6/15 5/7/15 3/7/15 
s off
f 9/8/16 7/9/16 1/9/16 4/8/16 
f 3/3/17 2/2/17 15/2/17 16/3/17 
f 2/2/18 8/2/18 17/2/18 15/2/18 
f 8/2/19 14/3/19 18/3/19 17/2/19 
f 14/3/20 3/3/20 16/3/20 18/3/20 
f 17/2/21 18/3/21 11/3/21 10/2/21 
f 18/3/22 16/3/22 12/3/22 11/3/22 
f 16/3/23 15/2/23 13/2/23 12/3/23 
f 15/2/24 17/2/24 10/2/24 13/2/24 
# 13 polygons - 2 triangles

