# 3ds Max Wavefront OBJ Exporter v0.97b - (c)2007 guruware
# File Created: 28.08.2013 14:17:12

#
# object Thruster
#

v  41.7364 -25.2107 59.3327
v  42.1283 -30.3974 51.6296
v  41.6707 -22.1264 46.0296
v  41.4715 -19.4896 49.9458
v  16.5578 -26.6364 59.3413
v  16.3033 -21.1405 50.3240
v  16.4888 -23.5968 46.6759
v  16.9284 -31.5422 52.0555
v  60.6027 -24.0898 61.6022
v  60.2647 -16.7921 49.6287
v  7.3396 -19.7712 50.4124
v  7.6776 -27.0689 62.3858
v  60.5594 -20.6927 43.8358
v  7.6343 -23.6717 44.6194
v  61.1431 -31.2427 50.9789
v  8.2180 -34.2217 51.7626
v  7.4543 -21.6385 50.4550
v  7.7089 -27.1345 59.4724
v  7.6399 -24.0949 46.8069
v  8.0795 -32.0403 52.1865
v  61.0219 -29.3339 51.3499
v  60.6301 -24.1472 59.0529
v  60.5643 -21.0629 45.7498
v  60.3651 -18.4261 49.6661
# 24 vertices

vn 0.9983 0.0562 -0.0148
vn -0.9983 -0.0562 0.0148
vn -0.0574 0.8512 0.5212
vn -0.0458 0.8272 -0.5601
vn 0.0422 -0.5580 -0.8288
vn 0.0458 -0.8272 0.5601
vn 0.0574 -0.8512 -0.5212
vn -0.0422 0.5580 0.8288
# 8 vertex normals

vt 1.0000 0.0000 0.0000
vt 1.0000 1.0000 0.0000
vt 0.0000 1.0000 0.0000
vt 0.0000 0.0000 0.0000
# 4 texture coords

g Thruster
s 2
f 1/1/1 2/2/1 3/3/1 4/4/1 
s 4
f 5/4/2 6/1/2 7/2/2 8/3/2 
s 8
f 9/4/3 10/1/3 11/2/3 12/3/3 
s 16
f 10/4/4 13/1/4 14/2/4 11/3/4 
s 32
f 13/4/5 15/1/5 16/2/5 14/3/5 
s 64
f 15/4/6 9/1/6 12/2/6 16/3/6 
s off
f 12/4/2 11/1/2 17/1/2 18/4/2 
f 11/1/2 14/2/2 19/2/2 17/1/2 
f 14/2/2 16/3/2 20/3/2 19/2/2 
f 16/3/2 12/4/2 18/4/2 20/3/2 
f 18/4/7 17/1/7 6/1/7 5/4/7 
f 17/1/6 19/2/6 7/2/6 6/1/6 
f 19/2/8 20/3/8 8/3/8 7/2/8 
f 20/3/4 18/4/4 5/4/4 8/3/4 
f 9/1/1 15/2/1 21/2/1 22/1/1 
f 15/2/1 13/3/1 23/3/1 21/2/1 
f 13/3/1 10/4/1 24/4/1 23/3/1 
f 10/4/1 9/1/1 22/1/1 24/4/1 
f 22/1/4 21/2/4 2/2/4 1/1/4 
f 21/2/8 23/3/8 3/3/8 2/2/8 
f 23/3/6 24/4/6 4/4/6 3/3/6 
f 24/4/7 22/1/7 1/1/7 4/4/7 
# 22 polygons

