# 3ds Max Wavefront OBJ Exporter v0.97b - (c)2007 guruware
# File Created: 28.08.2013 14:15:07

#
# object Box001
#

v  -92.6897 0.0000 3.9050
v  -93.9380 -1.2133 -0.4751
v  -50.0000 -3.5021 -0.4751
v  -50.0000 -2.2888 7.3804
v  -4.9360 -6.7869 -0.4751
v  -4.9360 -5.5736 5.3533
v  9.0000 -1.2133 -0.4751
v  9.0000 0.0000 18.2997
v  60.0950 5.8287 -0.4751
v  60.0950 6.4772 15.7858
v  -8.2841 24.5000 8.4270
v  16.7981 27.7699 9.4552
v  16.7981 29.4537 -0.4751
v  -8.2841 26.1838 -0.4751
v  60.0674 27.7699 9.9532
v  60.0950 29.4537 -0.4751
v  -50.0000 9.4309 11.7436
v  -84.3516 6.8496 3.2843
v  -8.9559 12.3372 16.1812
v  18.4092 4.6902 8.9704
v  24.3750 7.0761 14.5125
v  27.4873 13.4435 14.9878
v  16.0641 14.5453 19.0298
v  17.4676 14.1920 32.7158
v  60.7574 15.3323 29.6468
v  60.7574 15.3368 29.6199
v  -84.8332 6.6009 -0.4751
v  77.2145 10.9448 -0.4751
v  77.2145 12.0592 8.9961
v  77.2145 27.7699 8.9961
v  77.2145 29.4537 -0.4751
v  59.9744 15.4725 16.5022
v  77.2145 19.7975 11.1592
v  90.9889 16.6914 -0.4751
v  90.9889 17.3900 4.3417
v  90.9889 27.7699 4.3417
v  90.9889 29.4537 -0.4751
v  90.9889 22.8818 6.4352
v  97.4825 21.5435 -0.4751
v  97.4825 22.8949 4.4871
v  97.4825 27.7699 4.4871
v  97.4825 29.4537 -0.4751
v  97.4825 25.0833 5.4762
v  119.9149 21.5435 -0.4751
v  119.9149 22.8949 4.4871
v  119.9149 27.7699 3.7980
v  119.9149 29.4537 -0.4751
v  119.9149 26.0066 5.4762
v  146.4797 21.5435 -0.4751
v  146.4797 22.8949 4.4871
v  146.4797 28.9690 2.0587
v  146.4797 29.4537 -0.4751
v  146.4797 26.0066 5.4762
v  167.7315 21.5435 -0.4751
v  167.7315 22.8949 3.6682
v  155.2040 46.4194 -0.4751
v  155.2040 45.9347 2.1097
v  167.6921 40.7619 2.3467
v  167.6921 41.2467 -0.4751
v  167.7315 26.0066 4.6573
v  167.7315 28.9690 2.0587
v  154.1811 38.2460 1.9502
v  154.1811 38.7307 -0.4751
v  167.7315 36.3256 1.9502
v  177.1768 22.3634 -0.4751
v  177.1768 23.7148 2.9651
v  177.1768 26.0188 3.9542
v  177.1768 28.9812 2.0610
v  177.1571 35.2264 2.1508
v  177.1571 35.7111 -0.4751
v  167.7315 36.8103 -0.5835
v  184.8510 23.3363 -0.4751
v  184.8510 24.6878 1.6155
v  184.8510 26.0255 2.6046
v  184.8412 29.4055 2.1072
v  184.8412 29.8902 -0.4751
v  192.4790 24.8194 -0.4751
v  9.0273 0.7341 17.0558
v  -0.5748 -3.1062 8.1356
v  14.0366 10.9825 17.8208
v  -92.6897 0.0000 -4.8551
v  -50.0000 -2.2888 -8.3306
v  -4.9360 -5.5736 -6.3034
v  9.0000 0.0000 -19.2498
v  60.0950 6.4772 -16.7359
v  -8.2841 24.5000 -9.3772
v  16.7981 27.7699 -10.4053
v  60.0674 27.7699 -10.9034
v  -84.3516 6.8496 -4.2344
v  -50.0000 9.4309 -12.6937
v  -8.9559 12.3372 -17.1313
v  18.4092 4.6902 -9.9205
v  27.4873 13.4435 -15.9380
v  24.3750 7.0761 -15.4627
v  16.0641 14.5453 -19.9800
v  17.4676 14.1920 -33.6659
v  60.7574 15.3368 -30.5700
v  60.7574 15.3323 -30.5969
v  77.2145 12.0592 -9.9462
v  77.2145 27.7699 -9.9462
v  59.9744 15.4725 -17.4523
v  77.2145 19.7975 -12.1093
v  90.9889 17.3900 -5.2918
v  90.9889 27.7699 -5.2918
v  90.9889 22.8818 -7.3853
v  97.4825 22.8949 -5.4372
v  97.4825 27.7699 -5.4372
v  97.4825 25.0833 -6.4263
v  119.9149 22.8949 -5.4372
v  119.9149 27.7699 -4.7481
v  119.9149 26.0066 -6.4263
v  146.4797 22.8949 -5.4372
v  146.4797 28.9690 -3.0088
v  146.4797 26.0066 -6.4263
v  167.7315 22.8949 -4.6183
v  167.6921 40.7619 -3.2968
v  155.2040 45.9347 -3.0598
v  167.7315 28.9690 -3.0088
v  167.7315 26.0066 -5.6074
v  154.1811 38.2460 -2.9003
v  167.7315 36.3256 -2.9003
v  177.1768 23.7148 -3.9152
v  177.1768 28.9812 -3.0111
v  177.1768 26.0188 -4.9043
v  177.1571 35.2264 -3.1009
v  167.7315 36.8103 -0.3666
v  184.8510 24.6878 -2.5656
v  184.8412 29.4055 -3.0573
v  184.8510 26.0255 -3.5547
v  -0.5748 -3.1062 -9.0857
v  9.0273 0.7341 -18.0060
v  14.0366 10.9825 -18.7710
v  -78.3980 7.0589 2.4838
v  -79.2007 7.0488 -0.4751
v  -78.7907 7.3374 -3.2529
v  -8.6845 12.1635 12.7354
v  -49.7245 9.4016 8.5327
v  -50.0000 9.4309 -9.4253
v  -8.8223 12.3485 -13.9273
v  -7.8771 23.0618 -0.4751
v  -7.9469 21.4202 6.9010
v  -7.9469 21.5089 -7.6208
v  -34.7183 7.7654 -0.4926
v  -32.8615 8.0817 -0.4942
# 144 vertices

vn -0.0515 -0.9622 0.2676
vn -0.0520 -0.9986 -0.0000
vn -0.0689 -0.9976 0.0000
vn -0.0682 -0.9856 0.1545
vn 0.1530 -0.9882 0.0000
vn 0.1822 -0.9695 0.1637
vn 0.2373 -0.9714 0.0000
vn 0.1982 -0.8851 0.4210
vn 0.2082 -0.9781 0.0000
vn 0.1951 -0.8317 0.5199
vn -0.1288 0.9752 0.1799
vn -0.0667 0.9838 0.1662
vn -0.0669 0.9978 0.0000
vn -0.1293 0.9916 -0.0000
vn 0.0034 0.9872 0.1594
vn 0.0023 1.0000 -0.0000
vn -0.2075 0.1340 0.9690
vn -0.0738 -0.3739 0.9245
vn -0.0936 -0.3162 0.9441
vn -0.2479 0.3825 0.8901
vn -0.0202 -0.5206 0.8536
vn -0.0307 -0.5067 0.8616
vn -0.7109 0.3000 0.6361
vn -0.0480 0.5685 0.8213
vn -0.1045 0.5387 0.8360
vn -0.1186 0.5564 0.8224
vn -0.1682 0.5592 0.8118
vn -0.0143 0.9863 0.1644
vn -0.6399 0.7685 0.0000
vn -0.6359 0.7711 -0.0324
vn -0.6477 0.7617 0.0178
vn -0.6513 0.7588 -0.0000
vn -0.0504 -0.5250 0.8496
vn 0.3520 -0.9360 0.0000
vn 0.3630 -0.9252 0.1110
vn 0.0274 0.9847 0.1719
vn 0.0234 0.9997 -0.0000
vn 0.3777 -0.1130 0.9190
vn 0.3869 -0.0681 0.9196
vn 0.3731 -0.2226 0.9007
vn 0.3688 -0.2604 0.8923
vn 0.0593 0.4407 0.8957
vn 0.0661 0.4840 0.8726
vn 0.1636 0.3090 0.9369
vn 0.1666 0.2728 0.9475
vn 0.4954 -0.8687 -0.0000
vn 0.5017 -0.8537 0.1400
vn 0.0080 0.9537 0.3008
vn -0.0022 1.0000 -0.0000
vn 0.1775 0.3647 0.9140
vn 0.1421 0.3831 0.9127
vn 0.3426 -0.3194 0.8835
vn 0.3159 -0.3437 0.8843
vn 0.3531 -0.9356 0.0000
vn 0.3132 -0.9163 0.2496
vn 0.0034 0.9463 0.3232
vn 0.0045 1.0000 -0.0000
vn -0.0128 0.3564 0.9343
vn -0.0164 0.3582 0.9335
vn 0.1573 -0.3960 0.9047
vn 0.1217 -0.4035 0.9068
vn 0.0000 -1.0000 0.0000
vn 0.0000 -0.9649 0.2628
vn -0.0080 0.9317 0.3633
vn -0.0091 1.0000 -0.0000
vn 0.0098 0.6777 0.7352
vn 0.0112 0.6930 0.7208
vn 0.0058 -0.3067 0.9518
vn 0.0062 -0.3029 0.9530
vn 0.0008 -0.9640 0.2659
vn -0.0019 0.9783 0.2070
vn 0.0000 1.0000 -0.0000
vn 0.0167 0.7537 0.6570
vn 0.0157 0.7502 0.6611
vn 0.0184 -0.3029 0.9528
vn 0.0183 -0.3029 0.9529
vn 0.0482 -0.9988 -0.0000
vn 0.0492 -0.9474 0.3162
vn 0.3803 0.9249 0.0000
vn 0.3743 0.9114 0.1709
vn 0.4436 0.8831 0.1526
vn 0.4404 0.8978 0.0062
vn 0.0286 0.6661 0.7454
vn 0.0212 0.6463 0.7628
vn 0.0663 -0.3023 0.9509
vn 0.0642 -0.3099 0.9486
vn -0.7688 0.6395 0.0000
vn -0.7630 0.6349 0.1215
vn -0.9006 0.4264 0.0848
vn -0.9287 0.3708 0.0000
vn 0.0009 0.0121 0.9999
vn -0.0001 0.0147 0.9999
vn -0.0133 -0.0397 0.9991
vn -0.0091 -0.0077 0.9999
vn -0.9910 0.1317 0.0250
vn -0.9913 0.1319 -0.0000
vn -0.0218 -0.0754 0.9969
vn -0.0261 -0.0173 0.9995
vn 0.1163 -0.9932 -0.0000
vn 0.1202 -0.9169 0.3806
vn 0.0768 0.5533 0.8294
vn 0.0540 0.4905 0.8697
vn 0.1391 -0.3810 0.9140
vn 0.1320 -0.4048 0.9048
vn 0.5523 0.8200 0.1505
vn 0.5682 0.8208 0.0577
vn -0.0094 -0.0082 0.9999
vn -0.0188 -0.0247 0.9995
vn 0.0144 0.0246 -0.9996
vn 0.1969 -0.9804 -0.0000
vn 0.1814 -0.8259 0.5339
vn 0.2168 0.1974 0.9560
vn 0.1589 0.1442 0.9767
vn 0.1913 -0.5662 0.8018
vn 0.1763 -0.5852 0.7915
vn 0.5728 0.8056 0.1510
vn 0.5805 0.8143 0.0000
vn -0.0052 -0.0144 0.9999
vn 0.1908 -0.9816 0.0000
vn 0.5531 0.8331 0.0000
vn 0.9446 0.3282 0.0000
vn 0.3617 -0.9323 -0.0000
vn -0.6377 0.3583 0.6819
vn -0.7689 0.5574 0.3132
vn -0.7705 0.5562 0.3114
vn -0.6380 0.3582 0.6816
vn -0.7883 0.2590 0.5581
vn -0.3803 0.9248 0.0112
vn -0.2350 0.1861 -0.9540
vn 0.2668 -0.7183 0.6425
vn 0.0589 -0.0785 0.9952
vn 0.0589 -0.0786 0.9952
vn -0.0515 -0.9622 -0.2676
vn -0.0682 -0.9856 -0.1545
vn 0.1822 -0.9695 -0.1637
vn 0.1982 -0.8851 -0.4210
vn 0.1951 -0.8317 -0.5199
vn -0.1288 0.9752 -0.1799
vn -0.0667 0.9838 -0.1662
vn 0.0034 0.9872 -0.1594
vn -0.2075 0.1340 -0.9690
vn -0.2479 0.3825 -0.8901
vn -0.0936 -0.3162 -0.9441
vn -0.0738 -0.3739 -0.9245
vn -0.0307 -0.5067 -0.8616
vn -0.0202 -0.5206 -0.8536
vn -0.7109 0.3000 -0.6361
vn -0.0480 0.5685 -0.8213
vn -0.1682 0.5592 -0.8118
vn -0.1186 0.5564 -0.8224
vn -0.1045 0.5387 -0.8360
vn -0.0143 0.9863 -0.1644
vn -0.6477 0.7617 -0.0178
vn -0.6359 0.7711 0.0324
vn -0.0504 -0.5250 -0.8496
vn 0.3630 -0.9252 -0.1110
vn 0.0274 0.9847 -0.1719
vn 0.3777 -0.1130 -0.9190
vn 0.3688 -0.2604 -0.8923
vn 0.3731 -0.2226 -0.9007
vn 0.3869 -0.0681 -0.9196
vn 0.0593 0.4407 -0.8957
vn 0.1666 0.2728 -0.9475
vn 0.1636 0.3090 -0.9369
vn 0.0661 0.4840 -0.8726
vn 0.5017 -0.8537 -0.1400
vn 0.0080 0.9537 -0.3008
vn 0.1421 0.3831 -0.9127
vn 0.1775 0.3647 -0.9140
vn 0.3159 -0.3437 -0.8843
vn 0.3426 -0.3194 -0.8835
vn 0.3132 -0.9163 -0.2496
vn 0.0034 0.9463 -0.3232
vn -0.0164 0.3582 -0.9335
vn -0.0128 0.3564 -0.9343
vn 0.1217 -0.4035 -0.9068
vn 0.1573 -0.3960 -0.9047
vn 0.0000 -0.9649 -0.2628
vn -0.0080 0.9317 -0.3633
vn 0.0112 0.6930 -0.7208
vn 0.0098 0.6777 -0.7352
vn 0.0062 -0.3029 -0.9530
vn 0.0058 -0.3067 -0.9518
vn 0.0008 -0.9640 -0.2659
vn -0.0019 0.9783 -0.2070
vn 0.0157 0.7502 -0.6611
vn 0.0167 0.7537 -0.6570
vn 0.0183 -0.3029 -0.9529
vn 0.0184 -0.3029 -0.9528
vn 0.0492 -0.9474 -0.3162
vn 0.4436 0.8831 -0.1526
vn 0.3743 0.9114 -0.1709
vn 0.0212 0.6463 -0.7628
vn 0.0286 0.6661 -0.7454
vn 0.0642 -0.3099 -0.9486
vn 0.0663 -0.3023 -0.9509
vn -0.9006 0.4264 -0.0848
vn -0.7630 0.6349 -0.1215
vn 0.0009 0.0121 -0.9999
vn -0.0091 -0.0077 -0.9999
vn -0.0133 -0.0397 -0.9991
vn -0.0001 0.0147 -0.9999
vn -0.9910 0.1317 -0.0250
vn -0.0261 -0.0173 -0.9995
vn -0.0218 -0.0754 -0.9969
vn 0.1202 -0.9169 -0.3806
vn 0.0540 0.4905 -0.8697
vn 0.0768 0.5533 -0.8294
vn 0.1320 -0.4048 -0.9048
vn 0.1391 -0.3810 -0.9140
vn 0.5523 0.8200 -0.1505
vn 0.4986 0.8525 -0.1574
vn -0.0188 -0.0247 -0.9995
vn -0.0094 -0.0082 -0.9999
vn 0.0144 0.0246 0.9996
vn 0.1814 -0.8259 -0.5339
vn 0.1589 0.1442 -0.9767
vn 0.2168 0.1974 -0.9560
vn 0.1763 -0.5852 -0.7915
vn 0.1913 -0.5662 -0.8018
vn 0.5728 0.8056 -0.1510
vn -0.0052 -0.0144 -0.9999
vn -0.6377 0.3583 -0.6819
vn -0.6380 0.3582 -0.6816
vn -0.7705 0.5562 -0.3114
vn -0.7689 0.5574 -0.3132
vn -0.7883 0.2590 -0.5581
vn -0.3803 0.9248 -0.0112
vn -0.2350 0.1861 0.9540
vn 0.2668 -0.7183 -0.6425
vn 0.0589 -0.0785 -0.9952
vn 0.0589 -0.0786 -0.9952
vn -0.0571 0.9941 -0.0925
vn -0.0864 0.9952 0.0462
vn -0.0667 0.9977 0.0094
vn -0.0459 0.9966 -0.0691
vn -0.0895 0.9959 0.0141
vn -0.0853 0.9953 0.0451
vn -0.0646 0.9965 -0.0533
vn -0.0682 0.9975 -0.0171
vn -0.0682 0.9975 -0.0161
vn -0.0646 0.9964 -0.0553
vn -0.0717 0.9974 -0.0000
vn -0.0707 0.9975 -0.0006
vn -0.0707 0.9975 -0.0005
vn -0.0717 0.9974 -0.0007
vn -0.9921 -0.1255 0.0060
vn -0.9944 -0.0595 -0.0877
vn -0.9940 -0.0741 -0.0800
vn -0.9921 -0.1252 0.0040
vn -0.9937 -0.0605 0.0942
vn -0.9955 -0.0571 0.0760
vn -0.9964 0.0290 -0.0799
vn -0.9955 0.0146 -0.0940
vn -0.9982 0.0236 0.0551
vn -0.9987 0.0287 0.0416
vn -0.0161 0.9999 0.0009
vn -0.0160 0.9948 0.1010
vn -0.0472 0.9720 -0.2303
vn -0.0313 0.9731 -0.2285
vn -0.0479 0.9700 0.2385
vn -0.0234 0.9748 0.2217
vn -0.5057 0.8431 0.1829
vn -0.5059 0.8439 -0.1785
vn -0.4799 0.4948 0.7244
vn -0.4839 0.5272 -0.6985
# 266 vertex normals

vt 1.0000 0.0000 0.0000
vt 1.0000 0.5000 0.0000
vt 0.7500 0.5000 0.0000
vt 0.7500 0.0000 0.0000
vt 0.5000 0.5000 0.0000
vt 0.5000 0.0000 0.0000
vt 0.2500 0.5000 0.0000
vt 0.2500 0.0000 0.0000
vt 0.0000 0.5000 0.0000
vt 0.0000 0.0000 0.0000
vt 0.7500 1.0000 0.0000
vt 0.5002 0.8994 0.0000
vt 0.5000 0.5388 0.0000
vt 0.0000 0.5166 0.0000
vt -0.4770 -0.0215 0.0000
vt 0.2500 1.0000 0.0000
vt 0.0468 0.5099 0.0000
vt 0.5000 1.0000 0.0000
vt 0.2633 0.5969 0.0000
vt 0.5014 0.9774 0.0000
vt 0.5000 0.5413 0.0000
vt 0.7500 0.5050 0.0000
vt 1.0000 1.0000 0.0000
vt 0.5779 1.0866 0.0000
vt 0.0000 1.0000 0.0000
vt 0.0000 0.5460 0.0000
vt -0.0000 1.0000 0.0000
vt 0.0000 0.9004 0.0000
vt 0.0000 0.1392 0.0000
vt 0.0000 0.7568 0.0000
vt 1.0000 0.5102 0.0000
vt 0.2500 0.5336 0.0000
vt 0.5000 0.4623 0.0000
# 33 texture coords

g Box001
s 2
f 1/1/1 2/2/2 3/3/3 4/4/4 
f 4/4/4 3/3/3 5/5/5 6/6/6 
f 6/6/6 5/5/5 7/7/7 8/8/8 
f 8/8/8 7/7/7 9/9/9 10/10/10 
s 4
f 11/6/11 12/4/12 13/11/13 14/12/14 
f 12/10/12 15/13/15 16/14/16 13/15/13 
s 8
f 1/10/17 4/8/18 17/16/19 18/17/20 
f 4/8/18 6/6/21 19/18/22 17/19/19 
s 16
f 20/6/23 21/4/23 22/11/23 
f 12/11/24 11/20/25 19/21/26 23/22/27 
s 8
f 24/10/28 25/13/28 26/14/28 
s 64
f 2/6/29 1/1/30 18/23/31 27/24/32 
s 8
f 6/6/21 23/22/33 19/11/22 
s 2
f 10/10/10 9/6/9 28/6/34 29/10/35 
s 4
f 16/18/16 15/25/15 30/25/36 31/18/37 
s 8
f 32/14/38 10/10/39 29/10/40 33/14/41 
s 16
f 15/25/42 32/26/43 33/26/44 30/25/45 
s 2
f 29/10/35 28/6/34 34/6/46 35/10/47 
s 4
f 31/18/37 30/25/36 36/25/48 37/18/49 
s 16
f 30/25/45 33/26/44 38/26/50 36/25/51 
s 8
f 33/14/41 29/10/40 35/10/52 38/14/53 
s 2
f 35/10/47 34/6/46 39/6/54 40/10/55 
s 4
f 37/18/49 36/25/48 41/25/56 42/18/57 
s 16
f 36/25/51 38/26/50 43/26/58 41/25/59 
s 8
f 38/14/53 35/10/52 40/10/60 43/14/61 
s 2
f 40/25/55 39/18/54 44/18/62 45/27/63 
s 4
f 42/18/57 41/25/56 46/25/64 47/18/65 
s 16
f 41/25/59 43/26/58 48/26/66 46/28/67 
s 8
f 43/14/61 40/29/60 45/10/68 48/14/69 
s 2
f 45/10/63 44/6/62 49/6/62 50/10/70 
s 4
f 47/18/65 46/25/64 51/25/71 52/18/72 
s 16
f 46/25/67 48/30/66 53/26/73 51/25/74 
s 8
f 48/14/69 45/10/68 50/10/75 53/14/76 
s 2
f 50/10/70 49/6/62 54/6/77 55/10/78 
s 4
f 56/18/79 57/25/80 58/25/81 59/18/82 
s 16
f 51/25/74 53/26/73 60/26/83 61/25/84 
s 8
f 53/14/76 50/10/75 55/10/85 60/14/86 
s 1
f 52/18/87 51/25/88 62/25/89 63/18/90 
s 2
f 51/25/91 61/25/92 64/25/93 62/25/94 
s 1
f 63/18/90 62/25/89 57/25/95 56/18/96 
s 2
f 62/25/94 64/25/93 58/25/97 57/25/98 
f 55/10/78 54/6/77 65/6/99 66/10/100 
s 16
f 61/25/84 60/26/83 67/26/101 68/25/102 
s 8
f 60/14/86 55/10/85 66/10/103 67/14/104 
s 4
f 59/18/82 58/25/81 69/25/105 70/18/106 
s 2
f 64/25/93 61/25/92 68/25/107 69/25/108 
f 58/25/97 64/25/93 69/25/108 
s off
f 71/18/109 59/18/109 70/18/109 
s 2
f 66/10/100 65/6/99 72/6/110 73/10/111 
s 16
f 68/25/102 67/26/101 74/26/112 75/25/113 
s 8
f 67/14/104 66/10/103 73/10/114 74/14/115 
s 4
f 70/18/106 69/25/105 75/25/116 76/18/117 
s 2
f 69/25/108 68/25/107 75/25/118 
f 73/10/111 72/6/110 77/6/119 
s 4
f 76/18/117 75/25/116 77/25/120 
s 16
f 75/25/113 74/26/112 77/26/121 
s 8
f 74/14/115 73/10/114 77/10/122 
s 16
f 6/6/123 8/4/124 78/4/125 79/6/126 
f 8/4/124 23/11/27 80/11/127 78/4/125 
f 23/11/27 6/6/123 79/6/126 80/11/127 
s 4
f 79/6/128 78/4/128 21/4/128 20/6/128 
s 1
f 78/4/129 80/11/129 22/11/129 21/4/129 
s 2
f 80/11/130 79/6/130 20/6/130 22/11/130 
s 16
f 32/22/43 15/11/42 12/11/24 23/22/27 
s 2
f 32/10/131 23/8/132 8/8/8 10/10/10 
f 81/1/133 82/4/134 3/3/3 2/2/2 
f 82/4/134 83/6/135 5/5/5 3/3/3 
f 83/6/135 84/8/136 7/7/7 5/5/5 
f 84/8/136 85/10/137 9/9/9 7/7/7 
s 4
f 86/6/138 14/12/14 13/11/13 87/4/139 
f 87/10/139 13/15/13 16/14/16 88/13/140 
s 8
f 81/10/141 89/17/142 90/16/143 82/8/144 
f 82/8/144 90/19/143 91/18/145 83/6/146 
s 16
f 92/6/147 93/11/147 94/4/147 
f 87/11/148 95/22/149 91/21/150 86/20/151 
s 8
f 96/10/152 97/14/152 98/13/152 
s 64
f 2/6/29 27/24/32 89/23/153 81/1/154 
s 8
f 83/6/146 91/11/145 95/22/155 
s 2
f 85/10/137 99/10/156 28/6/34 9/6/9 
s 4
f 16/18/16 31/18/37 100/25/157 88/25/140 
s 8
f 101/14/158 102/14/159 99/10/160 85/10/161 
s 16
f 88/25/162 100/25/163 102/26/164 101/26/165 
s 2
f 99/10/156 103/10/166 34/6/46 28/6/34 
s 4
f 31/18/37 37/18/49 104/25/167 100/25/157 
s 16
f 100/25/163 104/25/168 105/26/169 102/26/164 
s 8
f 102/14/159 105/14/170 103/10/171 99/10/160 
s 2
f 103/10/166 106/10/172 39/6/54 34/6/46 
s 4
f 37/18/49 42/18/57 107/25/173 104/25/167 
s 16
f 104/25/168 107/25/174 108/26/175 105/26/169 
s 8
f 105/14/170 108/14/176 106/10/177 103/10/171 
s 2
f 106/25/172 109/27/178 44/18/62 39/18/54 
s 4
f 42/18/57 47/18/65 110/25/179 107/25/173 
s 16
f 107/25/174 110/28/180 111/26/181 108/26/175 
s 8
f 108/14/176 111/14/182 109/10/183 106/29/177 
s 2
f 109/10/178 112/10/184 49/6/62 44/6/62 
s 4
f 47/18/65 52/18/72 113/25/185 110/25/179 
s 16
f 110/25/180 113/25/186 114/26/187 111/30/181 
s 8
f 111/14/182 114/14/188 112/10/189 109/10/183 
s 2
f 112/10/184 115/10/190 54/6/77 49/6/62 
s 4
f 56/18/79 59/18/82 116/25/191 117/25/192 
s 16
f 113/25/186 118/25/193 119/26/194 114/26/187 
s 8
f 114/14/188 119/14/195 115/10/196 112/10/189 
s 1
f 52/18/87 63/18/90 120/25/197 113/25/198 
s 2
f 113/25/199 120/25/200 121/25/201 118/25/202 
s 1
f 63/18/90 56/18/96 117/25/203 120/25/197 
s 2
f 120/25/200 117/25/204 116/25/205 121/25/201 
f 115/10/190 122/10/206 65/6/99 54/6/77 
s 16
f 118/25/193 123/25/207 124/26/208 119/26/194 
s 8
f 119/14/195 124/14/209 122/10/210 115/10/196 
s 4
f 59/18/82 125/25/211 116/25/191 
f 125/25/211 59/18/212 70/18/212 
s 2
f 121/25/201 125/25/213 123/25/214 118/25/202 
f 116/25/205 125/25/213 121/25/201 
s off
f 126/18/215 70/18/215 59/18/215 
s 2
f 122/10/206 127/10/216 72/6/110 65/6/99 
s 16
f 123/25/207 128/25/217 129/26/218 124/26/208 
s 8
f 124/14/209 129/14/219 127/10/220 122/10/210 
s 4
f 70/18/106 76/18/117 128/25/221 125/25/211 
s 2
f 125/25/213 128/25/222 123/25/214 
f 127/10/216 77/6/119 72/6/110 
s 4
f 76/18/117 77/25/120 128/25/221 
s 16
f 128/25/217 77/26/121 129/26/218 
s 8
f 129/14/219 77/10/122 127/10/220 
s 16
f 83/6/223 130/6/224 131/4/225 84/4/226 
f 84/4/226 131/4/225 132/11/227 95/11/149 
f 95/11/149 132/11/227 130/6/224 83/6/223 
s 4
f 130/6/228 92/6/228 94/4/228 131/4/228 
s 1
f 131/4/229 94/4/229 93/11/229 132/11/229 
s 2
f 132/11/230 93/11/230 92/6/230 130/6/230 
s 16
f 101/22/165 95/22/149 87/11/148 88/11/162 
s 2
f 101/10/231 85/10/137 84/8/136 95/8/232 
s 1024
f 133/31/233 134/23/234 27/23/235 18/31/236 
f 134/23/234 135/31/237 89/31/238 27/23/235 
f 136/21/239 137/18/240 17/18/241 19/21/242 
f 137/32/240 133/16/233 18/16/236 17/32/241 
f 138/18/243 139/21/244 91/21/245 90/18/246 
f 135/16/237 138/32/243 90/32/246 89/16/238 
s 2048
f 140/5/247 141/21/248 11/21/249 14/5/250 
f 142/21/251 140/5/247 14/5/250 86/21/252 
f 141/18/248 136/33/253 19/33/254 11/18/249 
f 139/33/255 142/18/251 86/18/252 91/33/256 
s off
f 134/23/257 133/31/257 143/31/257 
f 135/31/258 134/23/258 143/23/258 
f 144/21/259 143/18/259 137/18/259 136/21/259 
f 133/16/260 137/32/260 143/32/260 
f 143/18/261 144/21/261 139/21/261 138/18/261 
f 138/32/262 135/16/262 143/16/262 
f 141/21/263 140/5/263 144/5/263 
f 140/5/264 142/21/264 144/21/264 
f 136/33/265 141/18/265 144/18/265 
f 142/18/266 139/33/266 144/33/266 
# 121 polygons - 30 triangles

#
# object Cockpit
#

v  -77.3533 9.2868 2.0042
v  -47.9865 15.5201 5.1673
v  -47.9865 15.9923 -0.4751
v  -77.3533 9.2868 -0.4751
v  -8.5594 23.5622 7.2022
v  -8.5594 25.1537 -0.4751
v  -80.4534 6.8803 2.7671
v  -47.9865 9.3199 10.0624
v  -9.1944 12.0668 13.8895
v  -80.9086 6.6451 -0.4751
v  -77.3533 9.2868 -2.9544
v  -47.9865 15.5201 -6.1174
v  -8.5594 23.5622 -8.1523
v  -47.9865 9.3199 -11.0126
v  -80.4534 6.8803 -3.7172
v  -9.1944 12.0668 -14.8396
# 16 vertices

vn -0.2218 0.9751 0.0091
vn -0.2196 0.9722 0.0816
vn -0.2214 0.9752 0.0000
vn -0.2226 0.9749 -0.0000
vn -0.2064 0.9614 0.1819
vn -0.2115 0.9774 0.0000
vn -0.1994 0.6396 0.7424
vn -0.2125 0.5535 0.8053
vn -0.2183 0.5820 0.7833
vn -0.1956 0.6303 0.7513
vn -0.1347 0.5538 0.8217
vn -0.1282 0.5382 0.8330
vn -0.6017 0.7986 0.0109
vn -0.5964 0.8027 -0.0000
vn -0.6041 0.7969 -0.0000
vn -0.6087 0.7930 0.0255
vn -0.2218 0.9751 -0.0091
vn -0.2196 0.9722 -0.0816
vn -0.2064 0.9614 -0.1819
vn -0.1994 0.6396 -0.7424
vn -0.1956 0.6303 -0.7513
vn -0.2183 0.5820 -0.7833
vn -0.2125 0.5535 -0.8053
vn -0.1347 0.5538 -0.8217
vn -0.1282 0.5382 -0.8330
vn -0.6017 0.7986 -0.0109
vn -0.6087 0.7930 -0.0255
# 27 vertex normals

vt 0.0000 0.0000 0.0000
vt 0.2500 0.0000 0.0000
vt 0.2500 0.5336 0.0000
vt -0.0004 0.2327 0.0000
vt 0.5000 0.0000 0.0000
vt 0.5000 0.5413 0.0000
vt 0.2491 0.3895 0.0000
vt 0.2500 1.0000 0.0000
vt 0.0242 0.6658 0.0000
vt 0.0000 0.5102 0.0000
vt 0.5000 1.0000 0.0000
vt 0.2466 0.8067 0.0000
vt 1.0000 1.0000 0.0000
vt 0.6291 1.0112 0.0000
vt 0.5000 0.4623 0.0000
vt 1.0000 0.5102 0.0000
# 16 texture coords

g Cockpit
s 4
f 145/34/267 146/35/268 147/36/269 148/37/270 
f 146/35/268 149/38/271 150/39/272 147/40/269 
s 16
f 146/41/273 145/42/274 151/43/275 152/36/276 
f 149/44/277 146/45/273 152/36/276 153/39/278 
s 64
f 145/46/279 148/47/280 154/48/281 151/49/282 
s 4
f 155/34/283 148/37/270 147/36/269 156/35/284 
f 156/35/284 147/40/269 150/39/272 157/38/285 
s 16
f 156/41/286 158/36/287 159/43/288 155/42/289 
f 157/44/290 160/39/291 158/36/287 156/45/286 
s 64
f 155/46/292 159/49/293 154/48/281 148/47/280 
# 10 polygons

